<svg width="1440" height="1024" viewBox="0 0 1440 1024" fill="none" xmlns="http://www.w3.org/2000/svg">
<g clip-path="url(#clip0_63_548)">
<rect width="1440" height="1024" fill="#030214"/>
<g filter="url(#filter0_f_63_548)">
<path d="M2341.29 1429.87C2189.19 1706.54 1398.21 1563.75 574.591 1110.95C-249.028 658.153 -793.397 66.8013 -641.293 -209.868C-489.188 -486.537 301.791 -343.754 1125.41 109.046C1949.03 561.847 2493.4 1153.2 2341.29 1429.87ZM-275.628 -8.83629C-390.436 199.994 20.4539 646.346 642.121 988.12C1263.79 1329.89 1860.82 1437.67 1975.63 1228.84C2090.44 1020.01 1679.55 573.654 1057.88 231.88C436.212 -109.894 -160.819 -217.666 -275.628 -8.83629Z" fill="#9C39FF" fill-opacity="0.4"/>
</g>
<path d="M478.281 857.5H972.962M-301.967 17.267L-301.967 1030.07M-236.009 17.267L-236.009 1030.07M-170.052 17.267L-170.052 1030.07M-104.094 17.267L-104.094 1030.07M-38.1369 17.267L-38.1369 1030.07M27.8207 17.267L27.8206 1030.07M93.7782 17.267L93.7782 1030.07M159.736 17.267L159.736 1030.07M225.693 17.267L225.693 1030.07M-302.717 989.759H1741.97M291.651 17.267L291.651 1030.07M-302.717 927.519H1741.97M357.608 17.267L357.608 1030.07M-302.717 865.28H1741.97M423.566 17.267L423.566 1030.07M-302.717 803.04H1741.97M489.523 17.267L489.523 1030.07M-302.717 740.801H1741.97M555.481 17.267L555.481 1030.07M-302.717 678.561H1741.97M621.439 17.267L621.438 1030.07M-302.717 616.322H1741.97M687.396 17.267L687.396 1030.07M-302.717 554.082H1741.97M753.354 17.267L753.354 1030.07M-302.717 491.843H1741.97M819.311 17.267L819.311 1030.07M-302.717 429.603H1741.97M885.269 17.267L885.269 1030.07M-302.717 367.364H1741.97M951.226 17.267L951.226 1030.07M-302.717 305.125H1741.97M1017.18 17.267L1017.18 1030.07M-302.717 242.885H1741.97M1083.14 17.267L1083.14 1030.07M-302.717 180.646H1741.97M1149.1 17.267L1149.1 1030.07M-302.717 118.406H1741.97M1215.06 17.267L1215.06 1030.07M-302.717 56.1667H1741.97M1281.01 17.267V1030.07M-302.717 -6.07275L1741.97 -6.07275M1346.97 17.267V1030.07M1412.93 17.267V1030.07M1478.89 17.267V1030.07M1544.84 17.267V1030.07M1610.8 17.267V1030.07M1676.76 17.267V1030.07M1742.72 17.267V1030.07" stroke="url(#paint0_radial_63_548)" stroke-width="3"/>
</g>
<defs>
<filter id="filter0_f_63_548" x="-930.778" y="-614.939" width="3561.56" height="2449.88" filterUnits="userSpaceOnUse" color-interpolation-filters="sRGB">
<feFlood flood-opacity="0" result="BackgroundImageFix"/>
<feBlend mode="normal" in="SourceGraphic" in2="BackgroundImageFix" result="shape"/>
<feGaussianBlur stdDeviation="132" result="effect1_foregroundBlur_63_548"/>
</filter>
<radialGradient id="paint0_radial_63_548" cx="0" cy="0" r="1" gradientUnits="userSpaceOnUse" gradientTransform="translate(720 450.51) rotate(90) scale(579.563 1144.1)">
<stop stop-color="white" stop-opacity="0.12"/>
<stop offset="0.6" stop-color="white" stop-opacity="0"/>
</radialGradient>
<clipPath id="clip0_63_548">
<rect width="1440" height="1024" fill="white"/>
</clipPath>
</defs>
</svg>
